<svg xmlns="http://www.w3.org/2000/svg">
  <symbol id="plus" viewBox="0 0 24 24">
    <path
      d="M11 1C11 0.447716 11.4477 0 12 0C12.5523 0 13 0.447715 13 1V23C13 23.5523 12.5523 24 12 24C11.4477 24 11 23.5523 11 23V1Z"
      fill="currentColor"/>
    <path
      d="M1 13C0.447716 13 2.41411e-08 12.5523 0 12C-2.41411e-08 11.4477 0.447715 11 1 11L23 11C23.5523 11 24 11.4477 24 12C24 12.5523 23.5523 13 23 13L1 13Z"
      fill="currentColor"/>
  </symbol>
  <symbol id="cross" viewBox="0 0 18 18">
    <path
      d="M15.8491 0.292899C16.2397 -0.0976255 16.8728 -0.0976255 17.2634 0.292898C17.6539 0.683422 17.6539 1.31659 17.2634 1.70711L1.70701 17.2635C1.31648 17.654 0.683319 17.654 0.292795 17.2635C-0.097729 16.8729 -0.097729 16.2398 0.292795 15.8492L15.8491 0.292899Z"
      fill="currentColor"/>
    <path
      d="M0.292795 1.70711C-0.097729 1.31659 -0.097729 0.683422 0.292795 0.292898C0.683319 -0.0976255 1.31648 -0.0976258 1.70701 0.292898L17.2634 15.8492C17.6539 16.2398 17.6539 16.8729 17.2634 17.2635C16.8728 17.654 16.2397 17.654 15.8491 17.2635L0.292795 1.70711Z"
      fill="currentColor"/>
  </symbol>
</svg>
